<svg width="72" height="48" viewBox="0 0 72 48" fill="none" xmlns="http://www.w3.org/2000/svg">
<path fill-rule="evenodd" clip-rule="evenodd" d="M72 24C72 10.7452 55.8823 6.66389e-07 36 4.29296e-07C16.1177 1.92202e-07 4.44259e-07 10.7452 2.86197e-07 24C1.28135e-07 37.2548 16.1177 48 36 48C55.8823 48 72 37.2548 72 24ZM55.6388 7.58706C54.6192 2.4324 45.7801 -0.161464 35.896 1.79351C26.0119 3.74849 18.8258 9.51199 19.8454 14.6667C20.8649 19.8213 29.704 22.4152 39.5881 20.4602C49.4722 18.5052 56.6583 12.7417 55.6388 7.58706Z" fill="#F7772E"/>
</svg>
